<svg width="108" height="108" viewBox="0 0 108 108" fill="none" xmlns="http://www.w3.org/2000/svg">
<circle cx="54" cy="54" r="54" fill="#87BC24"/>
<path d="M66.0938 17L41.4062 17C37.3159 17 34 20.3131 34 24.4L34 83.6C34 87.6869 37.3159 91 41.4062 91L66.0937 91C70.1841 91 73.5 87.6869 73.5 83.6L73.5 24.4C73.5 20.3131 70.1841 17 66.0938 17Z" fill="white" stroke="white" stroke-width="5" stroke-linecap="round" stroke-linejoin="round"/>
<path d="M41 17L44.75 17C45.0815 17 45.3995 17.1405 45.6339 17.3905C45.8683 17.6406 46 17.9797 46 18.3333C46 19.0406 46.2634 19.7189 46.7322 20.219C47.2011 20.719 47.837 21 48.5 21L58.5 21C59.163 21 59.7989 20.719 60.2678 20.219C60.7366 19.7189 61 19.0406 61 18.3333C61 17.9797 61.1317 17.6406 61.3661 17.3905C61.6005 17.1405 61.9185 17 62.25 17L66 17" fill="white"/>
<path d="M41 17L44.75 17C45.0815 17 45.3995 17.1405 45.6339 17.3905C45.8683 17.6406 46 17.9797 46 18.3333C46 19.0406 46.2634 19.7189 46.7322 20.219C47.2011 20.719 47.837 21 48.5 21L58.5 21C59.163 21 59.7989 20.719 60.2678 20.219C60.7366 19.7189 61 19.0406 61 18.3333C61 17.9797 61.1317 17.6406 61.3661 17.3905C61.6005 17.1405 61.9185 17 62.25 17L66 17" stroke="white" stroke-width="5" stroke-linecap="round" stroke-linejoin="round"/>
<rect x="41" y="19" width="25" height="4" rx="2" fill="#87BC24"/>
<path d="M53.5 36C46.5992 36 41 41.0398 41 47.25C41 57.25 53.5 71 53.5 71C53.5 71 66 57.25 66 47.25C66 41.0398 60.4008 36 53.5 36ZM53.5 53.5C52.5111 53.5 51.5444 53.2068 50.7221 52.6573C49.8999 52.1079 49.259 51.327 48.8806 50.4134C48.5022 49.4998 48.4031 48.4945 48.5961 47.5245C48.789 46.5546 49.2652 45.6637 49.9645 44.9645C50.6637 44.2652 51.5546 43.789 52.5245 43.5961C53.4945 43.4031 54.4998 43.5022 55.4134 43.8806C56.327 44.259 57.1079 44.8999 57.6573 45.7221C58.2068 46.5444 58.5 47.5111 58.5 48.5C58.4986 49.8256 57.9713 51.0966 57.0339 52.0339C56.0966 52.9713 54.8256 53.4986 53.5 53.5Z" fill="#87BC24"/>
</svg>
