<svg width="108" height="108" viewBox="0 0 108 108" fill="none" xmlns="http://www.w3.org/2000/svg">
<circle cx="54" cy="54" r="54" fill="#87BC24"/>
<path d="M84.6455 25.4991C84.6449 25.4949 84.6449 25.4907 84.6455 25.4866C84.5285 24.9736 84.2704 24.5035 83.9005 24.1294C83.5305 23.7552 83.0633 23.4919 82.5516 23.3692C78.4273 22.3631 71.9393 23.4356 64.7495 26.3142C57.503 29.2205 50.7132 33.5107 46.1239 38.1081C44.653 39.5712 43.2864 41.1357 42.0343 42.79C38.9439 42.6516 36.2216 43.0917 33.9283 44.0923C25.9373 47.6088 23.6551 56.6086 23.0475 60.3037C22.9596 60.8287 22.994 61.3669 23.1481 61.8765C23.3022 62.386 23.5718 62.8532 23.9359 63.2415C24.3 63.6298 24.7488 63.9289 25.2474 64.1155C25.746 64.302 26.2809 64.371 26.8105 64.3171H26.8285L35.7303 63.3456C35.7366 63.4101 35.7433 63.4715 35.7497 63.5301C35.7546 63.5744 35.7593 63.6172 35.7635 63.6583C35.8778 64.743 36.3616 65.7554 37.1336 66.5258L41.4779 70.8728C42.2472 71.6459 43.2595 72.1302 44.3441 72.2443L44.6417 72.2761L43.6729 81.1665V81.1845C43.6234 81.6633 43.6744 82.1472 43.8225 82.6052C43.9707 83.0632 44.2128 83.4852 44.5333 83.8443C44.8539 84.2034 45.2459 84.4917 45.6842 84.6907C46.1225 84.8897 46.5975 84.995 47.0789 85C47.2713 85.0002 47.4634 84.9844 47.6532 84.9529C51.3692 84.3551 60.3651 82.1007 63.8721 74.0669C64.8644 71.789 65.3031 69.0778 65.1799 65.993C66.8417 64.7437 68.4119 63.377 69.8785 61.9035C74.5051 57.3005 78.8093 50.5663 81.6852 43.4252C84.5487 36.3173 85.6268 29.781 84.6455 25.4991ZM69.8287 49.7013C68.6915 50.8397 67.2423 51.6151 65.6643 51.9297C64.0863 52.2442 62.4504 52.0836 60.9637 51.4682C59.477 50.8529 58.2062 49.8104 57.3121 48.4727C56.418 47.135 55.9407 45.5622 55.9407 43.9532C55.9407 42.3442 56.418 40.7713 57.3121 39.4336C58.2062 38.0959 59.477 37.0534 60.9637 36.4381C62.4504 35.8227 64.0863 35.6622 65.6643 35.9767C67.2423 36.2912 68.6915 37.0667 69.8287 38.205C70.5909 38.9557 71.1962 39.8505 71.6093 40.8374C72.0225 41.8242 72.2352 42.8833 72.2352 43.9532C72.2352 45.023 72.0225 46.0821 71.6093 47.069C71.1962 48.0558 70.5909 48.9506 69.8287 49.7013Z" fill="white"/>
<path d="M84.6455 25.4991C84.6449 25.4949 84.6449 25.4907 84.6455 25.4866C84.5285 24.9736 84.2704 24.5035 83.9005 24.1294C83.5305 23.7552 83.0633 23.4919 82.5516 23.3692C78.4273 22.3631 71.9393 23.4356 64.7495 26.3142C57.503 29.2205 50.7132 33.5107 46.1239 38.1081C44.653 39.5712 43.2864 41.1357 42.0343 42.79C38.9439 42.6516 36.2216 43.0917 33.9283 44.0923C25.9373 47.6088 23.6551 56.6086 23.0475 60.3037C22.9596 60.8287 22.994 61.3669 23.1481 61.8765C23.3022 62.386 23.5718 62.8532 23.9359 63.2415C24.3 63.6298 24.7488 63.9289 25.2474 64.1155C25.746 64.302 26.2809 64.371 26.8105 64.3171H26.8285L35.7303 63.3456C35.7366 63.4101 35.7433 63.4715 35.7497 63.5301C35.7546 63.5744 35.7593 63.6172 35.7635 63.6583C35.8778 64.743 36.3616 65.7554 37.1336 66.5258L41.4779 70.8728C42.2472 71.6459 43.2595 72.1302 44.3441 72.2443L44.6417 72.2761L43.6729 81.1665V81.1845C43.6234 81.6633 43.6744 82.1472 43.8225 82.6052C43.9707 83.0632 44.2128 83.4852 44.5333 83.8443C44.8539 84.2034 45.2459 84.4917 45.6842 84.6907C46.1225 84.8897 46.5975 84.995 47.0789 85C47.2713 85.0002 47.4634 84.9844 47.6532 84.9529C51.3692 84.3551 60.3651 82.1007 63.8721 74.0669C64.8644 71.789 65.3031 69.0778 65.1799 65.993C66.8417 64.7437 68.4119 63.377 69.8785 61.9035C74.5051 57.3005 78.8093 50.5663 81.6852 43.4252C84.5487 36.3173 85.6268 29.781 84.6455 25.4991ZM69.8287 49.7013C68.6915 50.8397 67.2423 51.6151 65.6643 51.9297C64.0863 52.2442 62.4504 52.0836 60.9637 51.4682C59.477 50.8529 58.2062 49.8104 57.3121 48.4727C56.418 47.135 55.9407 45.5622 55.9407 43.9532C55.9407 42.3442 56.418 40.7713 57.3121 39.4336C58.2062 38.0959 59.477 37.0534 60.9637 36.4381C62.4504 35.8227 64.0863 35.6622 65.6643 35.9767C67.2423 36.2912 68.6915 37.0667 69.8287 38.205C70.5909 38.9557 71.1962 39.8505 71.6093 40.8374C72.0225 41.8242 72.2352 42.8833 72.2352 43.9532C72.2352 45.023 72.0225 46.0821 71.6093 47.069C71.1962 48.0558 70.5909 48.9506 69.8287 49.7013Z" stroke="white"/>
<path d="M39.0242 74.0948C38.48 74.0273 37.9299 74.1608 37.4772 74.4702C36.5784 75.0846 35.6755 75.692 34.7641 76.284C32.9203 77.4819 30.715 75.3785 31.8106 73.4719L33.5195 70.5192C33.7638 70.162 33.8998 69.7418 33.9112 69.3092C33.9227 68.8765 33.8091 68.4498 33.584 68.0801C33.359 67.7104 33.032 67.4135 32.6424 67.2249C32.2528 67.0363 31.817 66.964 31.3873 67.0168C29.4907 67.2566 27.7278 68.1202 26.3762 69.4717L26.3753 69.4726C25.8597 69.9895 24.2956 71.5574 23.4536 77.5227C23.2138 79.2371 23.0627 80.9627 23.0007 82.6927C22.993 82.9929 23.0456 83.2917 23.1552 83.5713C23.2648 83.8509 23.4294 84.1058 23.6391 84.3208C23.8488 84.5359 24.0995 84.7068 24.3764 84.8234C24.6532 84.9401 24.9506 85.0001 25.251 85H25.3073C27.0391 84.9387 28.7666 84.7885 30.483 84.5501C36.4561 83.7064 38.0229 82.1401 38.5376 81.6255C39.8958 80.2737 40.7576 78.503 40.9834 76.6003C41.0557 76.0084 40.89 75.412 40.5226 74.9421C40.1552 74.4723 39.6163 74.1675 39.0242 74.0948Z" fill="white"/>
<path d="M39.0242 74.0948C38.48 74.0273 37.9299 74.1608 37.4772 74.4702C36.5784 75.0846 35.6755 75.692 34.7641 76.284C32.9203 77.4819 30.715 75.3785 31.8106 73.4719L33.5195 70.5192C33.7638 70.162 33.8998 69.7418 33.9112 69.3092C33.9227 68.8765 33.8091 68.4498 33.584 68.0801C33.359 67.7104 33.032 67.4135 32.6424 67.2249C32.2528 67.0363 31.817 66.964 31.3873 67.0168C29.4907 67.2566 27.7278 68.1202 26.3762 69.4717L26.3753 69.4726C25.8597 69.9895 24.2956 71.5574 23.4536 77.5227C23.2138 79.2371 23.0627 80.9627 23.0007 82.6927C22.993 82.9929 23.0456 83.2917 23.1552 83.5713C23.2648 83.8509 23.4294 84.1058 23.6391 84.3208C23.8488 84.5359 24.0995 84.7068 24.3764 84.8234C24.6532 84.9401 24.9506 85.0001 25.251 85H25.3073C27.0391 84.9387 28.7666 84.7885 30.483 84.5501C36.4561 83.7064 38.0229 82.1401 38.5376 81.6255C39.8958 80.2737 40.7576 78.503 40.9834 76.6003C41.0557 76.0084 40.89 75.412 40.5226 74.9421C40.1552 74.4723 39.6163 74.1675 39.0242 74.0948Z" stroke="white"/>
</svg>
