<svg width="108" height="108" viewBox="0 0 108 108" fill="none" xmlns="http://www.w3.org/2000/svg">
<circle cx="54" cy="54" r="54" fill="#87BC24"/>
<path d="M83.6065 37.242C83.1644 36.8019 82.6384 36.4529 82.059 36.2152C81.4795 35.9775 80.8581 35.8558 80.2307 35.8571H70.6923V33.5C70.6923 29.1239 68.9336 24.9271 65.8032 21.8327C62.6728 18.7384 58.4271 17 54 17C49.5729 17 45.3272 18.7384 42.1967 21.8327C39.0663 24.9271 37.3077 29.1239 37.3077 33.5V35.8571H27.7692C26.5044 35.8571 25.2913 36.3538 24.3969 37.2379C23.5025 38.122 23 39.3211 23 40.5714V72.3929C23 78.1384 27.9183 83 33.7308 83H74.2692C77.0808 83.0009 79.7811 81.9143 81.7927 79.9725C82.805 79.0179 83.6111 77.8705 84.1623 76.5994C84.7136 75.3283 84.9985 73.96 85 72.577V40.5714C85.0019 39.953 84.8798 39.3402 84.6406 38.7687C84.4014 38.1972 84.0499 37.6783 83.6065 37.242ZM42.0769 33.5C42.0769 30.3742 43.3331 27.3765 45.5691 25.1662C47.8051 22.956 50.8378 21.7143 54 21.7143C57.1622 21.7143 60.1949 22.956 62.4309 25.1662C64.6669 27.3765 65.9231 30.3742 65.9231 33.5V35.8571H42.0769V33.5ZM70.6923 47.6429C70.6923 52.0189 68.9336 56.2158 65.8032 59.3101C62.6728 62.4045 58.4271 64.1429 54 64.1429C49.5729 64.1429 45.3272 62.4045 42.1967 59.3101C39.0663 56.2158 37.3077 52.0189 37.3077 47.6429V45.2857C37.3077 44.6606 37.5589 44.061 38.0061 43.619C38.4533 43.1769 39.0599 42.9286 39.6923 42.9286C40.3247 42.9286 40.9313 43.1769 41.3785 43.619C41.8257 44.061 42.0769 44.6606 42.0769 45.2857V47.6429C42.0769 50.7686 43.3331 53.7664 45.5691 55.9766C47.8051 58.1869 50.8378 59.4286 54 59.4286C57.1622 59.4286 60.1949 58.1869 62.4309 55.9766C64.6669 53.7664 65.9231 50.7686 65.9231 47.6429V45.2857C65.9231 44.6606 66.1743 44.061 66.6215 43.619C67.0687 43.1769 67.6752 42.9286 68.3077 42.9286C68.9401 42.9286 69.5467 43.1769 69.9939 43.619C70.4411 44.061 70.6923 44.6606 70.6923 45.2857V47.6429Z" fill="white"/>
</svg>
