<?xml version="1.0" encoding="utf-8"?>
<!-- Generator: Adobe Illustrator 25.4.1, SVG Export Plug-In . SVG Version: 6.00 Build 0)  -->
<svg version="1.1" id="Слой_1" xmlns="http://www.w3.org/2000/svg" xmlns:xlink="http://www.w3.org/1999/xlink" x="0px" y="0px"
	 viewBox="0 0 595.28 170.45" style="enable-background:new 0 0 595.28 170.45;" xml:space="preserve">
<style type="text/css">
	.st0{fill:#1D1D1B;}
	.st1{fill:none;stroke:#1D1D1B;stroke-miterlimit:10;}
	.st2{fill:#FFFFFF;}
	.st3{fill:#87BC24;}
	.st4{fill:#EAE44B;}
	.st5{fill:#71C4C4;}
</style>
<path d="M79.82,61.42v51.85h26.26v13.55H64.03v-65.4H79.82z"/>
<g>
	<path d="M219.42,59.92c-5.23,0-10.06,0.81-14.48,2.43c-4.42,1.62-8.22,3.96-11.4,7.01c-3.17,3.05-5.64,6.67-7.38,10.84
		s-2.62,8.81-2.62,13.92c0,5.11,0.87,9.75,2.62,13.92s4.21,7.79,7.38,10.84c3.18,3.05,6.98,5.39,11.4,7.01
		c4.42,1.62,9.25,2.43,14.48,2.43c4.79,0,8.75-0.59,11.86-1.77c3.12-1.18,5.98-2.8,8.6-4.86v-17.01c-1.43,1.5-3.08,2.9-4.95,4.21
		c-1.87,1.31-3.99,2.37-6.35,3.18c-2.37,0.81-5.11,1.21-8.22,1.21c-3.55,0-6.81-0.75-9.76-2.24c-2.96-1.49-5.34-3.69-7.15-6.59
		c-1.81-2.89-2.71-6.34-2.71-10.32c0-4.05,0.9-7.51,2.71-10.37c1.81-2.86,4.19-5.05,7.15-6.54c2.96-1.49,6.21-2.24,9.76-2.24
		c3.11,0,5.86,0.39,8.22,1.17c2.37,0.78,4.49,1.84,6.35,3.17c1.87,1.34,3.52,2.76,4.95,4.25V66.56c-2.62-2.05-5.48-3.67-8.6-4.86
		C228.17,60.52,224.21,59.92,219.42,59.92z"/>
	<polygon points="309.86,61.42 291.36,61.42 269.13,87.22 269.13,61.42 252.77,61.42 252.77,126.83 269.13,126.83 269.13,98.23 
		292.11,126.83 311.26,126.83 283.33,92.07 	"/>
	<path d="M352.51,95.85c-1.65-1.52-3.44-2.79-5.37-3.78c-1.93-0.99-3.77-1.8-5.51-2.43c-3.8-1.31-6.8-2.63-9.02-3.97
		c-2.21-1.34-3.78-2.77-4.72-4.3c-0.93-1.52-1.4-3.19-1.4-5c0-2.11,0.81-4.03,2.43-5.74c1.62-1.71,4.2-2.57,7.75-2.57
		c2.55,0,4.72,0.5,6.49,1.49c1.77,1,3.28,2.27,4.53,3.83c1.25,1.56,2.27,3.15,3.08,4.77l6.82-3.92c-1.06-2.3-2.52-4.5-4.39-6.59
		c-1.87-2.09-4.13-3.8-6.77-5.14c-2.65-1.34-5.75-2.01-9.3-2.01c-3.68,0-6.95,0.73-9.81,2.2c-2.87,1.46-5.11,3.47-6.73,6.03
		c-1.62,2.55-2.43,5.45-2.43,8.69c0,2.99,0.57,5.51,1.73,7.57c1.15,2.05,2.63,3.78,4.44,5.18c1.81,1.4,3.71,2.55,5.7,3.46
		c1.99,0.9,3.8,1.63,5.42,2.2c2.49,0.87,4.84,1.85,7.06,2.94c2.21,1.09,4,2.51,5.37,4.25c1.37,1.74,2.05,4.08,2.05,7.01
		c0,2.99-1.06,5.45-3.18,7.38c-2.12,1.93-4.92,2.9-8.41,2.9c-2.62,0-4.95-0.56-7.01-1.68c-2.06-1.12-3.91-2.68-5.56-4.67
		c-1.65-1.99-3.22-4.3-4.72-6.92l-6.35,4.3c1.43,2.87,3.28,5.56,5.56,8.08c2.27,2.52,4.92,4.55,7.94,6.07
		c3.02,1.52,6.31,2.29,9.86,2.29c2.62,0,5.12-0.44,7.52-1.31c2.4-0.87,4.55-2.12,6.45-3.74c1.9-1.62,3.4-3.58,4.49-5.89
		c1.09-2.3,1.63-4.89,1.63-7.75c0-2.99-0.53-5.56-1.59-7.71C355.52,99.22,354.16,97.38,352.51,95.85z"/>
	<path d="M398.95,63.8c-3.33-1.59-7.12-2.38-11.35-2.38h-9.81h-3.55h-4.39v65.4h7.94v-26.16h9.81c4.23,0,8.02-0.8,11.35-2.38
		c3.33-1.59,5.98-3.86,7.94-6.82c1.96-2.96,2.94-6.43,2.94-10.42c0-4.05-0.98-7.54-2.94-10.47
		C404.93,67.65,402.28,65.39,398.95,63.8z M397.93,90.1c-2.65,2.06-6.09,3.09-10.32,3.09h-9.81v-24.3h9.81
		c4.23,0,7.68,1.01,10.32,3.04c2.65,2.03,3.97,5.06,3.97,9.11C401.9,85.03,400.57,88.05,397.93,90.1z"/>
	<path d="M474.22,70.16c-2.99-3.02-6.49-5.39-10.51-7.1c-4.02-1.71-8.43-2.57-13.22-2.57c-4.74,0-9.13,0.86-13.17,2.57
		c-4.05,1.71-7.57,4.08-10.56,7.1c-2.99,3.02-5.31,6.57-6.96,10.65c-1.65,4.08-2.48,8.52-2.48,13.31c0,4.74,0.83,9.16,2.48,13.27
		c1.65,4.11,3.97,7.68,6.96,10.7c2.99,3.02,6.51,5.39,10.56,7.1c4.05,1.71,8.44,2.57,13.17,2.57c4.8,0,9.2-0.86,13.22-2.57
		c4.02-1.71,7.52-4.08,10.51-7.1c2.99-3.02,5.31-6.59,6.96-10.7c1.65-4.11,2.48-8.53,2.48-13.27c0-4.8-0.83-9.23-2.48-13.31
		S477.21,73.18,474.22,70.16z M472.02,107.3c-2.15,3.86-5.08,6.91-8.78,9.16c-3.71,2.24-7.96,3.37-12.75,3.37
		c-4.74,0-8.97-1.12-12.71-3.37c-3.74-2.24-6.68-5.29-8.83-9.16c-2.15-3.86-3.22-8.25-3.22-13.18c0-4.92,1.08-9.31,3.22-13.17
		c2.15-3.86,5.09-6.92,8.83-9.16c3.74-2.24,7.97-3.36,12.71-3.36c4.8,0,9.05,1.12,12.75,3.36c3.71,2.24,6.63,5.29,8.78,9.16
		c2.15,3.86,3.22,8.26,3.22,13.17C475.24,99.04,474.17,103.43,472.02,107.3z"/>
	<polygon points="485.52,61.42 485.52,68.89 502.34,68.89 502.34,126.83 510.28,126.83 510.28,68.89 527.1,68.89 527.1,61.42 	"/>
</g>
<g>
	<circle class="st2" cx="183.16" cy="126.01" r="6.22"/>
</g>
<path class="st3" d="M174.57,80.29c-1.74-4.17-4.2-7.79-7.38-10.84c-3.18-3.05-6.9-5.4-11.17-7.05c-4.27-1.65-8.92-2.48-13.97-2.48
	c-4.98,0-9.62,0.83-13.92,2.48c-4.3,1.65-8.04,4-11.21,7.05c-3.18,3.05-5.65,6.67-7.43,10.84c-1.78,4.18-2.66,8.78-2.66,13.83
	s0.86,9.69,2.57,13.92s4.14,7.91,7.29,11.03c3.15,3.12,6.87,5.53,11.17,7.24c4.3,1.71,9.03,2.57,14.2,2.57
	c5.11,0,9.81-0.86,14.11-2.57c4.3-1.71,8.02-4.13,11.17-7.24c3.15-3.11,5.57-6.79,7.29-11.03c1.71-4.24,2.57-8.88,2.57-13.92
	S176.31,84.47,174.57,80.29z M145.64,110.77v4.56c0,1.98-1.6,3.58-3.58,3.58s-3.58-1.6-3.58-3.58v-4.53
	c-1.72-1.15-2.86-3.12-2.86-5.35c0-3.55,2.88-6.43,6.43-6.43s6.43,2.88,6.43,6.43C148.46,107.66,147.34,109.62,145.64,110.77z
	 M123.66,91.73c0.25-2.89,0.98-5.51,2.18-7.84c1.52-2.96,3.68-5.28,6.45-6.96c2.77-1.68,6.03-2.52,9.76-2.52
	c3.8,0,7.07,0.84,9.81,2.52c2.74,1.68,4.86,4,6.35,6.96c1.18,2.33,1.88,4.95,2.13,7.84H123.66z"/>
</svg>
